<svg width="67" height="47" viewBox="0 0 67 47" fill="none" xmlns="http://www.w3.org/2000/svg">
<path d="M3.99962 45.6518C2.69295 46.0346 1.59328 44.6187 2.28757 43.4474L8.87135 32.3406C9.41079 31.4306 10.6974 31.3499 11.3464 32.1854L17.1533 39.6623C17.8022 40.4978 17.4056 41.7244 16.3903 42.0219L3.99962 45.6518Z" fill="#858585"/>
<path d="M5.94727 5C5.94727 5 21.8022 17.8447 32.5187 17.9986C43.5596 18.1571 59.9473 5 59.9473 5" stroke="#858585" stroke-width="10" stroke-linecap="round"/>
<path d="M10.4102 6.76465C9.5745 10.152 9.48142 13.6925 10.1426 17.1338C10.8348 20.7365 12.334 24.1332 14.5225 27.0586C16.7109 29.9839 19.5297 32.3589 22.7598 33.9971C25.9901 35.6353 29.5445 36.4924 33.1436 36.5C36.7425 36.5075 40.2883 35.6653 43.5039 34.04C46.7194 32.4149 49.5168 30.0512 51.6777 27.1338C53.8386 24.2163 55.3047 20.8241 55.9619 17.2236C56.5893 13.7859 56.4614 10.2465 55.5938 6.85742L64.4492 4.35449C65.7048 9.14512 65.9004 14.1555 65.0127 19.0195C64.095 24.0476 62.048 28.7821 59.0332 32.8525C56.0185 36.9228 52.1176 40.2192 47.6357 42.4844C43.1538 44.7496 38.2119 45.9226 33.1963 45.9121C28.1806 45.9016 23.2261 44.7076 18.7207 42.4229C14.2153 40.138 10.2811 36.8237 7.22559 32.7393C4.17001 28.6547 2.07629 23.9107 1.10938 18.8779C0.174602 14.0123 0.319654 9.00581 1.52637 4.22363L10.4102 6.76465Z" fill="#858585" stroke="#858585"/>
</svg>
